<svg width="64" height="32" viewBox="0 0 64 32" fill="none" xmlns="http://www.w3.org/2000/svg">
<rect width="64" height="32" rx="16" fill="#2563EB"/>
<path d="M8.128 21.6667H10.032L11.072 18.8987H15.664L16.72 21.6667H18.688L14.512 10.4667H12.32L8.128 21.6667ZM11.584 17.3307L13.36 12.4507L15.152 17.3307H11.584ZM27.5032 10.4667H25.7752V14.6107C25.4872 14.2267 25.1352 13.9387 24.6872 13.7147C24.2392 13.4907 23.7112 13.3787 23.1192 13.3787C22.3832 13.3787 21.7112 13.5547 21.1352 13.9067C20.5432 14.2587 20.0792 14.7387 19.7432 15.3787C19.4072 16.0187 19.2472 16.7387 19.2472 17.5707C19.2472 18.4347 19.4072 19.1707 19.7432 19.8107C20.0632 20.4507 20.5272 20.9307 21.1192 21.2667C21.6952 21.6027 22.3672 21.7627 23.1192 21.7627C24.2392 21.7627 25.1352 21.3307 25.7912 20.4347L25.9992 21.6667H27.5032V10.4667ZM25.1352 19.5547C24.6872 20.0667 24.1112 20.3067 23.4072 20.3067C22.6872 20.3067 22.1112 20.0667 21.6792 19.5547C21.2312 19.0427 21.0232 18.3867 21.0232 17.5707C21.0232 16.7707 21.2312 16.1307 21.6792 15.6187C22.1112 15.1067 22.6872 14.8507 23.4072 14.8507C24.1112 14.8507 24.6872 15.1067 25.1352 15.6187C25.5672 16.1307 25.7912 16.7867 25.7912 17.6027C25.7912 18.4027 25.5672 19.0587 25.1352 19.5547ZM41.1055 14.2587C40.5295 13.6827 39.8095 13.3787 38.9135 13.3787C38.2415 13.3787 37.6815 13.5227 37.2175 13.7787C36.7375 14.0347 36.3695 14.4027 36.0815 14.8667C35.8415 14.3707 35.5055 14.0027 35.0735 13.7467C34.6255 13.5067 34.1295 13.3787 33.5535 13.3787C32.5295 13.3947 31.7295 13.7787 31.1535 14.5467L30.9615 13.4747H29.4575V21.6667H31.1855V17.2827C31.1855 16.5467 31.3455 15.9707 31.6975 15.5227C32.0495 15.0907 32.5135 14.8667 33.1055 14.8667C33.6655 14.8667 34.0975 15.0587 34.3855 15.4267C34.6735 15.7947 34.8335 16.3387 34.8335 17.0587V21.6667H36.5775V17.2347C36.5775 16.4987 36.7375 15.9227 37.0895 15.5067C37.4415 15.0907 37.9055 14.8667 38.5135 14.8667C39.0735 14.8667 39.5055 15.0587 39.7935 15.4267C40.0815 15.8107 40.2255 16.3547 40.2255 17.0587V21.6667H41.9535V17.0427C41.9535 15.7627 41.6655 14.8347 41.1055 14.2587ZM45.4017 10.4987C45.1937 10.3067 44.9377 10.1947 44.6497 10.1947C44.3457 10.1947 44.0897 10.3067 43.8977 10.4987C43.6897 10.6907 43.5937 10.9467 43.5937 11.2347C43.5937 11.5387 43.6897 11.7947 43.8977 11.9867C44.0897 12.1787 44.3457 12.2747 44.6497 12.2747C44.9377 12.2747 45.1937 12.1787 45.4017 11.9867C45.5937 11.7947 45.7057 11.5387 45.7057 11.2347C45.7057 10.9467 45.5937 10.6907 45.4017 10.4987ZM43.7857 13.4747V21.6667H45.5137V13.4747H43.7857ZM54.1613 14.2747C53.5533 13.6827 52.7533 13.3787 51.7933 13.3787C50.6573 13.3787 49.7773 13.7787 49.1693 14.5467L48.9773 13.4747H47.4733V21.6667H49.2013V17.5387C49.2013 16.7067 49.3933 16.0667 49.7773 15.5867C50.1613 15.1067 50.7053 14.8667 51.3933 14.8667C52.0333 14.8667 52.5133 15.0747 52.8493 15.4747C53.1693 15.8907 53.3453 16.4827 53.3453 17.2507V21.6667H55.0893V17.1547C55.0893 15.8427 54.7693 14.8827 54.1613 14.2747Z" fill="white"/>
</svg>
