<svg width="407" height="373" viewBox="0 0 407 373" fill="none" xmlns="http://www.w3.org/2000/svg">
<rect x="0.494629" width="406.505" height="372.536" rx="7" fill="white"/>
<rect x="27.6707" y="27.1758" width="65" height="19" rx="6.75" fill="#EFF6FF"/>
<rect x="27.6707" y="50.7051" width="31" height="19" rx="6.75" fill="#EFF6FF"/>
<rect x="67.7293" y="50.7051" width="65" height="19" rx="6.75" fill="#EFF6FF"/>
<rect x="283" y="27" width="97" height="40" rx="6.75" fill="#EFF6FF"/>
<line x1="379.434" y1="331.566" x2="168.566" y2="331.566" stroke="#F1F5F9" stroke-width="1.13233" stroke-linecap="round"/>
<line x1="379.434" y1="284.566" x2="168.566" y2="284.566" stroke="#F1F5F9" stroke-width="1.13233" stroke-linecap="round"/>
<line x1="379.434" y1="238.566" x2="168.566" y2="238.566" stroke="#F1F5F9" stroke-width="1.13233" stroke-linecap="round"/>
<line x1="379.434" y1="191.566" x2="168.566" y2="191.566" stroke="#F1F5F9" stroke-width="1.13233" stroke-linecap="round"/>
<line x1="379.434" y1="144.566" x2="168.566" y2="144.566" stroke="#F1F5F9" stroke-width="1.13233" stroke-linecap="round"/>
<rect x="165" y="108" width="194" height="19" rx="6.75" fill="#EFF6FF"/>
<rect x="165" y="154" width="157" height="19" rx="6.75" fill="#EFF6FF"/>
<rect x="164" y="202" width="203" height="19" rx="6.75" fill="#EFF6FF"/>
<rect x="164" y="248" width="113" height="19" rx="6.75" fill="#EFF6FF"/>
<rect x="164" y="295" width="184" height="19" rx="6.75" fill="#EFF6FF"/>
<rect x="28" y="109" width="97" height="19" rx="6.75" fill="#EFF6FF"/>
<rect x="28" y="154" width="97" height="19" rx="6.75" fill="#EFF6FF"/>
<rect x="28" y="206" width="97" height="19" rx="6.75" fill="#EFF6FF"/>
<rect x="28" y="251" width="97" height="19" rx="6.75" fill="#EFF6FF"/>
<rect x="28" y="299" width="97" height="19" rx="6.75" fill="#EFF6FF"/>
</svg>
