<svg width="29" height="27" viewBox="0 0 29 27" fill="none" xmlns="http://www.w3.org/2000/svg">
<path fill-rule="evenodd" clip-rule="evenodd" d="M0.488509 4.49586C0 5.67522 0 7.17033 0 10.1605V16.5542C0 19.5444 0 21.0395 0.488509 22.2188C1.13985 23.7913 2.38919 25.0407 3.96168 25.692C5.14104 26.1805 6.63615 26.1805 9.62637 26.1805H19.0541C22.0444 26.1805 23.5395 26.1805 24.7188 25.692C26.2913 25.0407 27.5406 23.7913 28.192 22.2188C28.6805 21.0395 28.6805 19.5444 28.6805 16.5542V10.1605C28.6805 7.17033 28.6805 5.67522 28.192 4.49586C27.5406 2.92337 26.2913 1.67403 24.7188 1.02269C23.5395 0.53418 22.0443 0.53418 19.0541 0.53418H9.62636C6.63615 0.53418 5.14104 0.53418 3.96168 1.02269C2.38919 1.67403 1.13985 2.92337 0.488509 4.49586ZM16.5479 7.53014C16.5778 7.43355 16.4673 7.36037 16.3827 7.42065L8.34925 13.1443C8.27418 13.1978 8.29198 13.3089 8.37907 13.3304L12.667 14.3884C12.7243 14.4025 12.7567 14.4598 12.7393 14.5162L11.3773 18.9299C11.3475 19.0265 11.4579 19.0997 11.5425 19.0394L19.576 13.3158C19.6511 13.2623 19.6332 13.1512 19.5462 13.1297L15.2583 12.0717C15.2009 12.0575 15.1685 12.0003 15.186 11.9438L16.5479 7.53014Z" fill="white"/>
</svg>
