<svg width="367" height="201" viewBox="0 0 367 201" fill="none" xmlns="http://www.w3.org/2000/svg">
<path d="M194.787 116.74C177.751 149.097 142.245 178.43 89.9291 180.043C64.9053 180.799 44.0396 175.179 28.718 165.049C-11.325 138.589 -13.4166 81.3845 47.6181 27.1286C100.337 -19.7184 160.263 6.26294 194.333 39.5523C210.537 55.378 210.285 87.3065 194.787 116.74Z" fill="#2563EB"/>
<path d="M228.479 40.8626C212.881 37.8638 200.709 57.0159 194.913 74.4292C189.117 91.8173 189.52 105.879 195.896 109.76C195.896 109.76 177.752 150.66 176.063 156.254C175.509 158.068 183.472 162.478 184.656 161.823C186.975 160.538 205.22 118.58 206.48 115.228C206.48 115.228 219.433 118.353 230.369 97.5125C241.306 76.6468 244.103 43.8866 228.479 40.8626ZM226.438 77.6548C220.718 95.2193 207.765 109.961 200.734 104.065C196.45 100.461 196.45 82.0648 211.041 61.4511C225.632 40.8374 233.141 57.0411 226.438 77.6548Z" fill="#FFFEF2"/>
<path d="M184.379 162.756C182.388 162.756 178.482 160.337 177.121 159.228C175.584 157.993 174.979 156.935 175.257 156.002C176.819 150.761 192.393 115.606 194.837 110.088C188.638 105.426 188.336 91.4899 194.106 74.1523C197.408 64.2738 202.12 55.5042 207.387 49.4309C213.964 41.8457 221.322 38.5949 228.681 40.0061C232.587 40.7621 235.586 43.2569 237.602 47.3897C240.273 52.9086 240.979 61.3506 239.643 71.1031C238.358 80.3263 235.283 90.1039 231.201 97.8908C225.43 108.903 219.054 113.263 214.695 114.976C211.167 116.388 208.37 116.312 207.084 116.186C205.85 119.21 201.389 129.542 196.828 139.647C186.899 161.622 185.664 162.302 185.135 162.579C184.908 162.705 184.656 162.756 184.379 162.756ZM176.945 156.456C177.021 156.783 177.903 157.842 180.221 159.228C182.136 160.362 183.749 160.967 184.278 161.017C186.924 158.295 204.262 118.63 205.673 114.926C205.824 114.498 206.278 114.271 206.706 114.372C206.732 114.372 209.831 115.052 214.14 113.313C218.172 111.675 224.12 107.542 229.588 97.0844C238.181 80.6791 241.054 58.7046 235.964 48.1457C234.225 44.5169 231.655 42.3749 228.303 41.7197C213.359 38.8469 201.414 57.6714 195.744 74.6815C190.125 91.5404 190.377 105.325 196.349 108.979C196.727 109.206 196.878 109.684 196.702 110.088C196.551 110.541 178.684 150.811 176.945 156.456ZM204.312 106.257C202.775 106.257 201.339 105.753 200.129 104.745C197.534 102.553 196.652 96.3788 197.912 88.9951C198.97 82.6699 201.994 72.6655 210.285 60.9474C217.946 50.1366 222.885 50.439 225.153 51.573C230.369 54.1938 231.277 65.5338 227.245 77.9323C222.734 91.7923 213.813 103.838 206.53 105.93C205.774 106.156 205.043 106.257 204.312 106.257ZM222.809 52.7826C219.886 52.7826 215.955 56.0082 211.746 61.9554C197.03 82.7455 197.735 100.411 201.288 103.384C202.599 104.493 204.212 104.77 206.051 104.241C212.729 102.326 221.297 90.5323 225.581 77.3779C229.664 64.8282 228.152 55.0254 224.372 53.1354C223.918 52.9086 223.389 52.7826 222.809 52.7826Z" fill="#202D37"/>
<path d="M194.787 116.74C177.751 149.097 142.244 178.43 89.929 180.043C64.9053 180.799 44.0396 175.179 28.7179 165.049C32.4979 151.264 36.8575 141.537 40.3604 133.549C55.3796 99.1504 68.0049 102.93 68.0049 102.93C68.9373 99.2008 69.8949 95.6223 70.8525 92.1951C73.8261 81.5103 76.7997 72.3626 79.0425 65.7854C81.4366 58.7798 83.0494 54.6469 83.0494 54.6469C82.3186 54.5713 81.5877 54.4453 80.9073 54.2941C74.8089 52.9837 70.9785 49.4053 71.9109 45.9025C73.0197 41.6185 79.2945 40.7365 85.7206 44.6173C86.023 46.1041 87.3082 46.9105 87.8374 47.3389C88.5682 47.8933 86.5522 50.3629 87.8374 51.1441C89.1226 51.9253 93.079 48.6745 93.6586 47.5657C97.615 47.5657 108.325 42.9037 108.804 36.0996C108.804 36.0996 116.062 35.016 120.698 42.4501C122.563 45.4741 125.562 47.5909 128.435 48.2713C137.633 58.7546 145.42 71.3798 144.538 72.5642C143.227 74.3282 123.218 65.7854 123.218 65.7854C123.218 65.7854 117.674 86.5251 114.524 108.399C114.046 111.624 113.642 114.875 113.315 118.076C112.861 122.435 122.084 139.597 122.084 139.597L122.11 139.647C124.982 137.883 127.553 136.371 128.939 135.439C132.492 133.07 134.659 128.685 146.251 130.247C147.209 130.373 148.57 130.147 150.132 129.718C155.097 128.382 162.027 125.031 163.513 124.804C163.765 124.754 164.143 125.182 164.547 125.913C178.86 119.21 185.841 116.312 190.276 116.16C191.309 116.11 192.897 116.312 194.787 116.74Z" fill="#FFFEF2"/>
<path d="M208.42 132.364C211.318 134.758 210.411 141.512 204.489 140.227L204.464 140.378C206.555 142.898 205.119 146.275 201.188 146.678C201.188 152.222 197.004 153.18 191.687 153.104C186.521 153.029 177.802 150.332 171.426 147.913L164.521 125.863C178.835 119.16 185.815 116.262 190.251 116.11C194.711 115.959 208.974 120.243 212.88 125.409C216.585 130.399 212.175 133.423 208.42 132.364Z" fill="#FFFEF2"/>
<path d="M107.872 53.7147C107.317 53.4879 107.065 52.8831 107.292 52.3287L108.3 49.8087C108.527 49.2543 109.132 49.0023 109.686 49.2291C110.24 49.4559 110.492 50.0607 110.266 50.6151L109.258 53.1351C109.031 53.6643 108.426 53.9415 107.872 53.7147Z" fill="#202D37"/>
<path d="M24.3835 185.284C24.3331 185.284 24.2827 185.284 24.2323 185.259C23.7535 185.184 23.4259 184.73 23.5267 184.226C27.7603 160.109 34.2871 145.166 39.0752 134.254L39.554 133.171C52.6328 103.258 64.0737 101.67 67.3245 101.897C71.1801 86.7771 75.3633 73.7487 78.2109 65.4326C79.8994 60.4934 81.2098 56.9402 81.8398 55.3022C81.4618 55.2518 81.0838 55.1762 80.731 55.1006C76.5477 54.1934 73.2969 52.2782 71.7849 49.8085C70.9533 48.4477 70.7013 47.0113 71.0793 45.6253C71.5329 43.8361 72.8181 42.4753 74.6577 41.7445C77.9338 40.4845 82.621 41.4169 86.8798 44.2141C87.283 44.4913 87.409 45.0205 87.1318 45.4237C86.8546 45.8269 86.3254 45.9529 85.9222 45.6757C82.117 43.2061 78.0598 42.3241 75.2877 43.3825C73.9773 43.8865 73.1205 44.8189 72.7929 46.0537C72.5409 46.9861 72.7173 47.9437 73.2969 48.8761C74.5317 50.8921 77.455 52.5805 81.1342 53.3618C81.7894 53.513 82.495 53.6138 83.2006 53.6894C83.4778 53.7146 83.7046 53.8658 83.8558 54.1178C84.007 54.3446 84.0322 54.647 83.9314 54.899C83.9062 54.9494 82.2934 59.0822 79.9246 66.0122C77.0266 74.4291 72.7677 87.7095 68.8869 103.107C68.8365 103.334 68.6853 103.535 68.4585 103.661C68.2569 103.787 68.0049 103.812 67.7781 103.737C67.7529 103.737 64.8045 102.981 60.0921 106.206C55.6568 109.256 48.7772 116.538 41.192 133.876L40.7132 134.96C35.9755 145.796 29.4991 160.613 25.2907 184.528C25.1899 184.982 24.8119 185.284 24.3835 185.284Z" fill="#202D37"/>
<path d="M83.8054 50.5141C83.5282 50.5141 83.251 50.3881 83.0746 50.1361C82.7722 49.7329 80.6806 48.3973 78.2362 48.3973H78.211C77.7322 48.3973 77.329 47.9941 77.329 47.5153C77.329 47.0365 77.7322 46.6333 78.211 46.6333C78.2362 46.6333 78.2362 46.6333 78.2614 46.6333C81.2602 46.6333 83.9062 48.2209 84.5362 49.1281C84.8134 49.5313 84.7378 50.0857 84.3346 50.3629C84.1582 50.4637 83.9818 50.5141 83.8054 50.5141Z" fill="#202D37"/>
<path d="M122.034 140.454C121.732 140.454 121.404 140.277 121.253 140C120.295 138.211 111.904 122.486 112.382 117.975C114.953 93.2034 122.236 65.8108 122.311 65.5336C122.387 65.2816 122.538 65.0801 122.765 64.9793C122.992 64.8785 123.269 64.8532 123.496 64.954C131.711 68.4569 141.312 71.9345 143.605 71.9093C143.152 70.2209 139.901 64.3492 133.802 56.3104C126.822 47.0872 119.766 39.9807 114.449 36.8055C114.02 36.5535 113.894 36.0243 114.146 35.5959C114.398 35.1675 114.928 35.0415 115.356 35.2935C128.057 42.8535 144.487 67.2977 145.369 71.7581C145.42 71.9597 145.521 72.5897 145.168 73.0433C144.513 73.9001 143.101 74.3537 132.996 70.6241C129.191 69.2129 125.436 67.6757 123.722 66.9701C122.412 72.0605 116.389 96.177 114.096 118.152C113.743 121.503 120.245 134.456 122.765 139.168C122.992 139.597 122.84 140.126 122.412 140.353C122.311 140.428 122.16 140.454 122.034 140.454Z" fill="#202D37"/>
<path d="M112.332 109.306C105.553 109.306 97.6403 107.693 89.7779 104.694C81.4618 101.519 74.3302 97.1597 70.1974 92.7748C69.8698 92.422 69.8698 91.8676 70.2478 91.54C70.6006 91.2124 71.155 91.2124 71.4826 91.5904C79.1938 99.7805 99.1775 108.349 114.424 107.517C114.902 107.492 115.331 107.87 115.356 108.349C115.381 108.827 115.003 109.256 114.524 109.281C113.794 109.281 113.063 109.306 112.332 109.306Z" fill="#202D37"/>
<path d="M115.961 56.008C115.583 56.008 115.23 55.756 115.129 55.378C114.978 54.9244 115.255 54.4204 115.709 54.2692C118.582 53.3872 122.387 54.2188 122.538 54.244C123.017 54.3448 123.319 54.8236 123.218 55.3024C123.118 55.7812 122.639 56.0836 122.16 55.9828C122.135 55.9828 118.657 55.2268 116.238 55.9576C116.137 56.008 116.062 56.008 115.961 56.008Z" fill="#202D37"/>
<path d="M103.084 63.5427C102.756 63.5427 102.428 63.3411 102.277 63.0135C101.143 60.4431 99.5555 58.7799 96.2291 56.7135C95.8259 56.4615 95.6999 55.9071 95.9519 55.5039C96.2039 55.1007 96.7583 54.9747 97.1615 55.2267C100.236 57.1419 102.428 58.9815 103.89 62.3331C104.092 62.7867 103.89 63.2907 103.436 63.4923C103.31 63.5175 103.184 63.5427 103.084 63.5427Z" fill="#202D37"/>
<path d="M83.0493 54.6218C83.0493 54.6218 81.4365 58.7547 79.0425 65.7603C67.3497 65.2563 68.6096 54.9494 71.5329 56.4362C73.8765 57.6459 77.3793 56.3103 80.9073 54.269C81.5877 54.395 82.2933 54.521 83.0493 54.6218Z" fill="#202D37"/>
<path d="M79.0174 66.6425C78.9922 66.6425 78.9922 66.6425 78.967 66.6425C71.7093 66.3401 69.5673 62.4593 68.9877 60.7961C68.3073 58.8557 68.5845 56.8397 69.6429 55.8821C70.2729 55.3277 71.1045 55.2521 71.8857 55.6301C73.5742 56.5121 76.447 55.7813 80.4286 53.4629C80.6302 53.3621 80.8318 53.3117 81.0586 53.3621C81.7138 53.5133 82.4194 53.6141 83.125 53.6897C83.4022 53.7149 83.629 53.8661 83.7802 54.1181C83.9314 54.3449 83.9566 54.6473 83.8558 54.8993C83.8306 54.9497 82.2178 59.0825 79.849 66.0125C79.7482 66.3905 79.3954 66.6425 79.0174 66.6425ZM70.9533 57.1673C70.9029 57.1673 70.8777 57.1925 70.8273 57.2177C70.4493 57.5453 70.1721 58.7801 70.6761 60.2165C71.1297 61.4765 72.7426 64.3997 78.4126 64.8281C80.0002 60.2165 81.235 56.9153 81.8398 55.3277C81.5878 55.2773 81.3106 55.2269 81.0586 55.1765C76.5478 57.7217 73.3978 58.3769 71.1297 57.2177C71.0289 57.1925 70.9785 57.1673 70.9533 57.1673Z" fill="#202D37"/>
<path d="M85.8215 42.7529C84.9899 45.4241 87.1067 46.7093 87.8375 47.2889C88.5683 47.8433 86.5523 50.3129 87.8375 51.0941C89.1227 51.8753 93.0791 48.6245 93.6587 47.5157C97.6151 47.5157 108.325 42.8536 108.804 36.0496C108.804 36.0496 116.062 34.966 120.673 42.4001C124.478 48.5237 132.895 51.0437 135.592 45.0209C137.608 40.5352 129.972 44.0885 129.115 41.4676C127.981 38.0152 128.334 31.1356 121.076 28.4896C113.819 25.8688 107.544 31.0096 107.544 31.0096C103.739 26.146 90.9119 26.146 85.8215 42.7529Z" fill="#202D37"/>
<path d="M88.3162 52.1018C87.9634 52.1018 87.661 52.0262 87.3838 51.8498C86.0482 51.0434 86.5774 49.481 86.8798 48.5234C86.9554 48.3218 87.0562 48.0194 87.0814 47.8178C86.2498 47.1878 84.0322 45.5245 84.9646 42.4753L85.7962 42.7273L84.9646 42.4753C88.6186 30.5557 95.7754 28.0357 98.6987 27.4813C102.176 26.826 105.603 27.7585 107.67 29.7997C109.56 28.5145 115.079 25.3645 121.379 27.6325C127.628 29.9005 128.636 35.0161 129.392 38.7709C129.569 39.6529 129.745 40.5097 129.947 41.1397C130.123 41.6689 131.61 41.6437 132.719 41.6185C134.231 41.5933 135.818 41.5681 136.524 42.6265C137.179 43.6093 136.6 44.8945 136.423 45.323C135.365 47.6918 133.374 49.103 130.854 49.2542C126.948 49.5062 122.462 46.8602 119.942 42.8029C116.465 37.2085 111.4 36.7801 109.61 36.8053C108.426 43.5841 98.5979 48.0698 94.1122 48.3722C93.1798 49.5818 90.811 51.4718 89.1226 51.9506C88.8454 52.0514 88.5682 52.1018 88.3162 52.1018ZM88.2658 50.3378C89.0974 50.5142 92.3482 48.1202 92.8522 47.1122C93.0034 46.8098 93.3058 46.6333 93.6334 46.6333C97.5646 46.6333 107.468 42.0217 107.897 35.9737C107.922 35.5705 108.25 35.2177 108.653 35.1673C108.98 35.1169 116.54 34.0837 121.404 41.9209C123.571 45.3986 127.477 47.7674 130.703 47.5406C132.568 47.4146 133.979 46.4066 134.785 44.6425C135.088 43.9873 135.062 43.6849 135.037 43.6345C134.861 43.3825 133.424 43.4077 132.744 43.4077C131.005 43.4329 128.863 43.4833 128.284 41.7193C128.032 40.9633 127.855 40.0813 127.679 39.1237C126.973 35.5957 126.116 31.2109 120.799 29.2957C114.121 26.8765 108.174 31.6141 108.123 31.6645C107.947 31.8157 107.695 31.8913 107.468 31.8661C107.241 31.8409 107.015 31.7149 106.863 31.5385C105.326 29.5729 102.176 28.6405 99.0515 29.2201C93.5578 30.2281 89.0722 35.2429 86.7034 42.9793C86.1742 44.6929 87.157 45.6001 88.1902 46.3813C88.2658 46.4317 88.3414 46.5073 88.417 46.5577C89.2234 47.1878 88.8706 48.221 88.5934 49.0526C88.4422 49.4306 88.2154 50.111 88.2658 50.3378Z" fill="#202D37"/>
<path d="M106.183 126.316C105.704 126.316 105.276 126.165 104.923 125.863C104.142 125.182 103.31 123.343 102.025 120.419C101.042 118.177 99.4294 114.422 98.623 114.044C97.5142 113.716 91.819 116.891 88.7698 118.58C86.7286 119.714 84.9645 120.697 83.8809 121.15C80.3529 122.612 75.1869 118.025 70.0713 108.852C69.8445 108.424 69.9957 107.895 70.4241 107.643C70.8525 107.416 71.3817 107.567 71.6337 107.97C75.9933 115.782 80.7561 120.52 83.2257 119.487C84.2085 119.084 86.0229 118.076 87.913 117.017C94.7422 113.212 97.867 111.725 99.3538 112.406C100.689 113.01 101.849 115.556 103.638 119.663C104.495 121.604 105.528 124.023 106.057 124.477C106.082 124.502 106.107 124.527 106.233 124.502C107.141 124.401 108.879 122.662 109.761 121.503C110.064 121.125 110.618 121.049 110.996 121.352C111.374 121.654 111.45 122.209 111.147 122.587C110.694 123.166 108.375 126.064 106.41 126.241C106.334 126.316 106.259 126.316 106.183 126.316Z" fill="#202D37"/>
<path d="M98.6484 125.661C96.9096 125.661 94.1879 125.082 93.3815 124.452C92.3987 123.67 91.8191 121.528 90.6095 116.791L90.5087 116.362C90.3827 115.884 90.6851 115.405 91.1387 115.279C91.6175 115.153 92.0963 115.455 92.2223 115.909L92.3231 116.337C93.1043 119.412 93.9107 122.587 94.4651 123.04C95.0195 123.494 98.4468 124.074 99.1776 123.822C99.6312 123.62 101.294 121.881 102.529 120.369C102.832 119.991 103.386 119.941 103.764 120.243C104.142 120.546 104.192 121.1 103.89 121.478C103.008 122.562 100.816 125.082 99.7572 125.46C99.5052 125.611 99.102 125.661 98.6484 125.661Z" fill="#202D37"/>
<path d="M100.69 153.507C100.211 153.507 99.8327 153.129 99.8075 152.676C99.7571 151.844 98.7995 132.188 98.5979 124.729C98.5727 124.25 98.9759 123.847 99.4547 123.821C99.9335 123.796 100.337 124.199 100.362 124.678C100.589 132.137 101.546 151.768 101.572 152.6C101.597 153.079 101.219 153.507 100.74 153.532C100.74 153.507 100.715 153.507 100.69 153.507Z" fill="#202D37"/>
<path d="M86.8545 164.444C86.8293 164.444 86.8041 164.444 86.7789 164.444C86.3001 164.419 85.9221 163.99 85.9725 163.486C87.5853 142.545 93.0286 123.695 93.079 123.519C93.205 123.04 93.709 122.788 94.1626 122.914C94.6414 123.04 94.8934 123.544 94.7674 123.998C94.717 124.174 89.3242 142.873 87.7365 163.612C87.7113 164.091 87.3081 164.444 86.8545 164.444Z" fill="#202D37"/>
<path d="M133.525 186.847C133.273 186.847 132.996 186.721 132.845 186.519C132.542 186.141 132.618 185.587 132.996 185.285C157.692 165.679 159.078 158.018 159.103 157.943C159.129 157.59 159.381 157.313 159.708 157.212C164.647 155.624 170.343 153.356 171.023 152.424C171.3 150.786 170.141 144.99 168.15 138.236C165.958 130.752 164.118 126.568 163.387 125.712C162.682 125.913 161.145 126.543 159.532 127.198C155.097 129.013 149.023 131.482 146.125 131.104C137.078 129.895 134.08 132.415 131.434 134.607C130.778 135.162 130.148 135.691 129.443 136.144C128.485 136.774 126.998 137.682 125.26 138.74C120.572 141.588 113.466 145.897 110.24 149.072C106.359 152.877 103.688 153.18 100.614 153.533C99.9334 153.608 99.2278 153.684 98.497 153.81C96.1282 154.188 95.725 156.027 95.3974 158.774C95.1706 160.689 94.8934 162.882 92.7766 163.008C88.9966 163.26 84.5865 164.948 83.5029 167.695C82.1673 171.097 80.5041 174.524 76.4217 175.784C73.0953 176.817 71.1297 178.632 68.0049 183.521C67.7529 183.924 67.1985 184.05 66.7953 183.798C66.3921 183.546 66.2661 182.991 66.5181 182.588C69.4413 177.977 71.7093 175.406 75.8925 174.121C79.2441 173.088 80.5797 170.316 81.8397 167.065C83.2509 163.487 88.4422 161.546 92.6506 161.269C93.2302 161.219 93.4066 160.387 93.6334 158.573C93.9358 156.078 94.339 152.676 98.2198 152.071C99.001 151.945 99.7318 151.869 100.437 151.794C103.411 151.466 105.578 151.214 109.031 147.837C112.407 144.511 119.312 140.328 124.378 137.253C126.091 136.22 127.578 135.313 128.51 134.683C129.14 134.254 129.72 133.776 130.35 133.246C133.147 130.928 136.6 128.03 146.428 129.34C148.872 129.668 154.945 127.198 158.952 125.56C161.346 124.578 162.757 124.023 163.438 123.922C163.866 123.847 164.269 124.023 164.647 124.426C166.109 125.989 168.453 132.793 170.015 138.16C170.821 140.907 173.367 150.105 172.787 152.852C172.636 153.583 171.981 154.566 166.159 156.809C163.942 157.665 161.699 158.421 160.767 158.724C160.086 160.916 156.18 169.157 134.155 186.645C133.903 186.771 133.702 186.847 133.525 186.847Z" fill="#202D37"/>
<path d="M159.935 158.925C159.582 158.925 159.255 158.724 159.129 158.371C152.123 141.436 149.275 129.995 149.225 129.895C149.099 129.416 149.401 128.937 149.88 128.836C150.359 128.71 150.838 129.013 150.939 129.491C150.964 129.592 153.811 140.932 160.741 157.716C160.918 158.169 160.716 158.673 160.263 158.875C160.162 158.9 160.061 158.925 159.935 158.925Z" fill="#202D37"/>
<path d="M209.932 133.448C209.151 133.448 208.37 133.322 207.639 133.019C204.212 131.709 202.851 131.18 202.851 131.155C202.397 130.978 202.17 130.449 202.347 130.021C202.523 129.567 203.052 129.34 203.481 129.517C203.506 129.517 204.842 130.071 208.244 131.356C209.957 132.011 211.998 131.583 212.906 130.399C213.737 129.29 213.46 127.702 212.15 125.938C208.445 120.999 194.409 116.866 190.276 116.992C185.942 117.118 178.936 120.092 164.874 126.669C164.421 126.871 163.917 126.694 163.69 126.241C163.488 125.787 163.665 125.283 164.118 125.056C178.407 118.378 185.564 115.354 190.2 115.228C194.636 115.077 209.302 119.235 213.561 124.88C216.131 128.307 214.947 130.625 214.317 131.457C213.384 132.742 211.696 133.448 209.932 133.448Z" fill="#202D37"/>
<path d="M205.85 141.285C204.287 141.285 202.221 140.731 199.575 139.017C199.172 138.765 199.046 138.211 199.323 137.808C199.575 137.405 200.129 137.279 200.532 137.556C204.212 139.925 207.11 140.227 208.445 138.387C209.554 136.875 209.252 134.255 207.84 133.095C207.462 132.793 207.412 132.239 207.714 131.861C208.017 131.483 208.571 131.432 208.949 131.735C211.066 133.499 211.494 137.153 209.856 139.421C209.428 139.975 208.218 141.285 205.85 141.285Z" fill="#202D37"/>
<path d="M200.406 147.636C199.02 147.636 197.408 147.333 195.568 146.577C195.114 146.401 194.913 145.872 195.089 145.418C195.266 144.964 195.795 144.763 196.248 144.939C200.432 146.653 203.052 145.695 204.035 144.385C204.791 143.377 204.69 142.066 203.783 140.958C203.481 140.58 203.531 140.025 203.909 139.723C204.287 139.42 204.842 139.471 205.144 139.849C206.555 141.562 206.681 143.755 205.446 145.443C204.539 146.653 202.851 147.636 200.406 147.636Z" fill="#202D37"/>
<path d="M192.242 154.036C192.04 154.036 191.864 154.036 191.662 154.036C185.211 153.961 174.299 150.004 171.099 148.795C170.645 148.618 170.418 148.114 170.595 147.661C170.771 147.207 171.275 146.98 171.729 147.157C174.853 148.341 185.538 152.222 191.687 152.298C195.492 152.348 197.76 151.819 199.02 150.559C199.877 149.702 200.306 148.442 200.306 146.754C200.306 146.275 200.709 145.872 201.188 145.872C201.666 145.872 202.07 146.275 202.07 146.754C202.07 148.921 201.465 150.634 200.255 151.819C198.315 153.709 195.165 154.036 192.242 154.036Z" fill="#202D37"/>
<path d="M298.485 184.932C298.032 184.932 297.654 184.604 297.603 184.151C297.553 183.672 297.906 183.243 298.384 183.193C306.625 182.361 329.885 181.882 332.959 182.336C333.438 182.412 333.765 182.865 333.69 183.344C333.614 183.823 333.186 184.151 332.682 184.075C330.036 183.672 307.028 184.075 298.536 184.932C298.536 184.932 298.51 184.932 298.485 184.932Z" fill="#202D37"/>
<path d="M336.815 192.416C334.496 192.416 329.355 192.265 323.055 192.114C314.538 191.887 303.929 191.584 297.528 191.584C297.049 191.584 296.646 191.181 296.646 190.702C296.646 190.224 297.049 189.82 297.528 189.82C303.954 189.82 314.563 190.098 323.106 190.35C330.187 190.551 336.311 190.702 337.697 190.652C338.176 190.627 338.604 191.005 338.604 191.484C338.604 191.962 338.251 192.391 337.772 192.391C337.546 192.416 337.243 192.416 336.815 192.416Z" fill="#202D37"/>
<path d="M306.222 200.228C302.517 200.228 299.342 200.127 297.729 199.8C297.25 199.699 296.948 199.245 297.024 198.767C297.099 198.288 297.578 197.96 298.057 198.061C302.265 198.867 318.419 198.212 324.517 197.96C325.979 197.91 326.835 197.859 327.113 197.859C327.591 197.859 327.995 198.263 327.995 198.741C327.995 199.22 327.591 199.623 327.113 199.623C326.886 199.623 325.928 199.674 324.593 199.724C320.334 199.926 312.522 200.228 306.222 200.228Z" fill="#202D37"/>
<path d="M331.145 13.7977C329.557 13.7977 328.121 13.7726 326.886 13.7222C326.407 13.697 326.029 13.2937 326.029 12.8149C326.054 12.3361 326.432 11.9581 326.936 11.9581C331.22 12.1093 338.528 11.9329 344.979 11.7817C350.221 11.6557 355.16 11.5297 358.008 11.6053C358.487 11.6053 358.89 12.0085 358.865 12.5125C358.865 12.9914 358.462 13.3694 357.983 13.3694H357.957C355.135 13.2938 350.221 13.4197 345.005 13.5457C340.141 13.6717 335.177 13.7977 331.145 13.7977Z" fill="#202D37"/>
<path d="M330.111 22.2395C329.633 22.2395 329.229 21.8615 329.229 21.3575C329.229 20.8787 329.607 20.4755 330.111 20.4755C335.277 20.3999 345.257 20.0471 346.693 19.8959C347.172 19.8455 347.6 20.1983 347.651 20.6771C347.701 21.1559 347.348 21.5843 346.869 21.6347C345.357 21.8111 335.429 22.1639 330.111 22.2395Z" fill="#202D37"/>
<path d="M330.111 29.7242C329.633 29.7242 329.255 29.3461 329.229 28.8673C329.204 28.3885 329.582 27.9601 330.086 27.9601C333.967 27.8089 339.057 27.7585 344.475 27.7081C353.144 27.6325 362.09 27.557 365.341 27.0025C365.82 26.9269 366.274 27.2545 366.349 27.7333C366.425 28.2121 366.097 28.6657 365.618 28.7413C362.216 29.2957 353.195 29.3966 344.475 29.4722C339.083 29.5226 333.992 29.573 330.137 29.7242C330.137 29.7242 330.111 29.7242 330.111 29.7242Z" fill="#202D37"/>
<path d="M342.485 40.1066C339.032 40.1066 335.807 39.9806 333.463 39.6782C332.984 39.6278 332.631 39.1742 332.707 38.6954C332.783 38.2166 333.211 37.8638 333.69 37.9394C341.829 38.9978 360.352 37.7378 361.687 37.3094C362.141 37.1582 362.645 37.4102 362.796 37.889C362.947 38.3426 362.695 38.8466 362.216 38.9978C360.982 39.3758 351.053 40.1066 342.485 40.1066Z" fill="#202D37"/>
<path d="M242.314 151.516C240.097 151.516 239.366 151.214 238.963 150.886C238.685 150.659 238.509 150.332 238.484 149.979C237.249 120.167 239.089 96.605 239.114 96.3782C239.139 95.9498 239.492 95.597 239.945 95.5718C246.749 95.1686 253.049 97.0838 253.327 97.1594C253.679 97.2602 253.931 97.613 253.957 97.991C253.957 98.3186 254.687 131.003 251.411 150.105C251.336 150.483 251.033 150.785 250.655 150.836C250.63 150.836 248.186 151.189 245.59 151.39C244.255 151.466 243.171 151.516 242.314 151.516ZM240.248 149.576C241.382 149.928 245.817 149.651 249.773 149.122C252.646 131.608 252.268 103.283 252.193 98.6462C250.555 98.2178 245.842 97.109 240.802 97.2602C240.525 101.569 239.189 123.065 240.248 149.576Z" fill="#202D37"/>
<path d="M265.901 150.886C264.011 150.886 262.071 150.836 260.509 150.735C260.055 150.71 259.702 150.307 259.702 149.853C259.702 149.475 259.727 112.406 261.214 91.4138C261.239 91.061 261.466 90.7586 261.819 90.6326C265.196 89.4734 273.688 90.557 274.041 90.5822C274.47 90.6326 274.797 90.9854 274.822 91.4138C274.822 91.7162 275.906 120.747 274.142 149.878C274.117 150.332 273.739 150.685 273.31 150.71C273.058 150.76 269.581 150.886 265.901 150.886ZM261.466 149.047C265.12 149.248 270.438 149.097 272.428 149.021C273.966 122.864 273.235 96.9831 273.084 92.2707C270.513 91.9935 265.473 91.6154 262.953 92.1698C261.592 111.423 261.466 143.477 261.466 149.047Z" fill="#202D37"/>
<path d="M318.645 153.86C317.562 153.86 308.162 153.734 306.322 153.154C305.944 153.028 305.692 152.676 305.718 152.272C305.743 151.869 307.431 112.355 310.481 88.6673C310.531 88.2893 310.833 87.9617 311.211 87.9113C317.385 86.9537 322.703 89.3729 322.929 89.4737C323.232 89.6249 323.433 89.9273 323.433 90.2801C323.433 90.6581 322.955 129.113 319.527 153.104C319.477 153.532 319.099 153.86 318.645 153.86ZM307.507 151.592C309.472 151.869 314.437 152.02 317.889 152.071C320.964 129.819 321.594 95.7737 321.669 90.8345C320.309 90.3053 316.453 89.0453 312.144 89.5241C309.372 111.423 307.759 146.073 307.507 151.592Z" fill="#202D37"/>
<path d="M287.12 74.3787C291.303 73.3203 301.56 75.8655 301.56 75.8655C301.56 75.8655 296.394 143.125 295.134 150.004C295.134 150.004 285.709 150.76 282.181 149.349C282.181 149.349 282.181 106.03 287.12 74.3787Z" fill="#FAD932"/>
<path d="M289.69 150.609C286.918 150.609 283.794 150.433 282.03 149.702C281.878 149.652 281.803 149.501 281.803 149.349C281.803 148.921 281.853 105.627 286.742 74.3035C286.767 74.1523 286.868 74.0263 287.019 74.0011C291.253 72.9427 301.232 75.3871 301.635 75.4879C301.812 75.5383 301.938 75.6895 301.912 75.8911C301.711 78.6379 296.721 143.251 295.461 150.08C295.436 150.257 295.285 150.383 295.108 150.383C294.957 150.408 292.513 150.609 289.69 150.609ZM282.559 149.097C285.759 150.231 293.244 149.778 294.806 149.652C296.091 141.764 300.778 81.1327 301.156 76.1431C299.443 75.7399 291.228 73.9002 287.448 74.6563C282.811 104.644 282.559 145.443 282.559 149.097Z" fill="#FAD932"/>
<path d="M309.397 32.9246C309.246 36.125 308.59 38.9726 307.557 41.4674C306.877 43.1054 306.02 44.6174 305.037 45.9531C298.561 54.7983 286.036 57.1419 275.578 52.9839C270.74 51.0435 266.355 47.7423 263.205 43.0298C250.479 24.0037 266.153 8.43007 275.906 3.89404C275.906 3.89404 281.022 24.659 284.524 30.203C284.55 30.203 301.912 31.211 309.397 32.9246Z" fill="#FFFEF2"/>
<path d="M286.036 55.8569C282.408 55.8569 278.728 55.1513 275.276 53.7905C270.009 51.6988 265.599 48.1204 262.5 43.5088C257.838 36.5536 256.477 29.4723 258.442 22.4919C260.988 13.4199 268.875 6.21262 275.578 3.08781C275.805 2.98701 276.082 2.98701 276.334 3.08781C276.561 3.21381 276.738 3.41541 276.813 3.66741C276.864 3.86902 281.702 23.4495 285.079 29.3463C287.952 29.5227 302.719 30.5055 309.599 32.0679C310.027 32.1687 310.304 32.5468 310.279 32.9752C310.128 36.1756 309.498 39.1492 308.389 41.8204C307.709 43.4836 306.827 45.0712 305.768 46.5076C302.517 50.9428 297.755 53.9669 292.009 55.2521C290.068 55.6553 288.052 55.8569 286.036 55.8569ZM275.352 5.15422C269.253 8.30424 262.399 14.8563 260.131 22.9455C258.316 29.4219 259.602 35.9992 263.961 42.5008C266.859 46.8352 270.992 50.1616 275.931 52.1273C286.465 56.3357 298.41 53.5133 304.357 45.3988C305.315 44.0884 306.121 42.6268 306.776 41.0896C307.709 38.8216 308.288 36.3016 308.49 33.58C300.804 32.0175 284.701 31.0348 284.524 31.0348C284.247 31.0096 283.97 30.8583 283.819 30.6315C280.694 25.7175 276.46 9.51384 275.352 5.15422Z" fill="#202D37"/>
<path d="M307.582 41.4676C306.902 43.1056 306.045 44.6176 305.062 45.9532C298.586 54.7984 286.062 57.142 275.604 52.984C278.552 41.8708 284.55 30.2031 284.55 30.2031L307.582 41.4676Z" fill="#FFFEF2"/>
<path d="M286.036 55.8565C282.408 55.8565 278.728 55.1509 275.276 53.7901C274.873 53.6137 274.646 53.1853 274.747 52.7569C277.67 41.6689 283.718 29.9256 283.768 29.7996C283.995 29.3712 284.499 29.1948 284.953 29.4216L307.961 40.6861C308.389 40.8877 308.565 41.3917 308.389 41.8201C307.709 43.4833 306.826 45.0709 305.768 46.5073C302.517 50.9425 297.754 53.9665 292.009 55.2517C290.068 55.6549 288.052 55.8565 286.036 55.8565ZM276.662 52.4293C287.019 56.2093 298.536 53.3365 304.357 45.4237C305.163 44.3149 305.869 43.1305 306.449 41.8705L284.978 31.362C283.617 34.0584 279.157 43.4077 276.662 52.4293Z" fill="#202D37"/>
<path d="M280.719 1.62602C281.274 8.48045 286.918 25.8433 286.918 25.8433C286.918 25.8433 308.389 27.7837 311.917 27.7585C311.917 7.92605 296.545 -3.69121 280.719 1.62602Z" fill="#FAD932"/>
<path d="M311.867 28.162C308.187 28.162 287.75 26.3224 286.868 26.2468C286.717 26.2216 286.591 26.1208 286.54 25.9948C286.314 25.2892 280.87 8.48068 280.316 1.67665C280.291 1.50025 280.417 1.34905 280.568 1.29865C287.851 -1.14576 295.436 -0.112559 301.408 4.17146C308.313 9.13589 312.295 17.7543 312.295 27.8092C312.295 28.0108 312.119 28.1872 311.917 28.1872C311.917 28.162 311.892 28.162 311.867 28.162ZM287.196 25.516C289.514 25.7176 307.381 27.3304 311.539 27.406C311.438 17.7543 307.608 9.53909 300.98 4.77626C295.31 0.693843 288.078 -0.33936 281.122 1.90345C281.752 8.37988 286.54 23.4496 287.196 25.516Z" fill="#FAD932"/>
<path d="M309.397 32.9247C309.145 38.2168 307.532 42.5764 305.063 45.9532C293.017 39.8044 284.575 30.2031 284.575 30.2031C284.575 30.2031 301.913 31.2111 309.397 32.9247Z" fill="#FFFEF2"/>
<path d="M305.063 46.8349C304.937 46.8349 304.785 46.8097 304.659 46.7341C292.588 40.5852 283.995 30.858 283.894 30.7824C283.668 30.5052 283.617 30.1272 283.768 29.8248C283.92 29.4972 284.272 29.3208 284.625 29.3208C285.331 29.3712 302.139 30.354 309.599 32.0676C310.027 32.1684 310.304 32.5464 310.279 32.9748C310.027 38.1912 308.515 42.7525 305.768 46.4821C305.592 46.7089 305.34 46.8349 305.063 46.8349ZM286.742 31.2108C289.615 34.1088 296.268 40.308 304.785 44.7937C306.927 41.6437 308.162 37.8888 308.49 33.6048C302.517 32.3952 291.48 31.5384 286.742 31.2108Z" fill="#202D37"/>
</svg>
